<?xml version="1.0" encoding="utf-8"?>
<!-- Generator: Adobe Illustrator 19.2.1, SVG Export Plug-In . SVG Version: 6.00 Build 0)  -->
<svg version="1.1" id="MVM-symbol" xmlns="http://www.w3.org/2000/svg" xmlns:xlink="http://www.w3.org/1999/xlink" x="0px" y="0px"
	 viewBox="0 0 649 649" style="enable-background:new 0 0 649 649;" xml:space="preserve">
<style type="text/css">
	.st0{fill:#008F3F;}
	.st1{opacity:0.2;fill:#263238;}
	.st2{opacity:0.2;}
	.st3{fill:#FFFFFF;}
</style>
<g>
	<path class="st0" d="M335.5,460.4c-0.9,11.4-0.6,23-2.8,34.1c-5.1,26.2-20.3,45.3-43,59.2c-31.7,19.4-67.1,27.1-102.6,35.1
		c-13.6,3.1-27.5,5-41,8.7c-9.8,2.6-13.8-1.5-17.6-9.5c-15.8-33.5-31.9-66.9-48.1-100.2c-13.1-27-26.4-53.8-40.5-82.5
		c5.5-0.7,9.5-1.4,13.4-1.6c50.9-2.6,98.6-15.5,141.4-43.9c32.5-21.6,53.6-51.6,63.1-89.6c0.4-1.6,0.9-3.1,2.2-7.4
		c11.7,23.1,22.9,43.5,32.4,64.7c10.1,22.6,18.3,46.1,27.8,68.9c1.3,3.1,5.8,7.2,8.6,7c53.2-3.7,103.6-16.5,146.8-49.5
		c29.2-22.3,49.3-51,54.7-88.6c1.1-0.8,2.2-1.5,3.3-2.3c0.9,2.2,1.6,4.5,2.7,6.5c26.3,51,52.3,102.4,65.3,158.7
		c4.5,19.4,5.7,40.3,4.3,60.2c-2.4,34.7-24.5,56.9-54.3,71.7c-38.3,19-80.1,26.3-121.5,34.8c-22.3,4.6-22.7,4.4-32.8-16
		c-18.1-36.6-35.9-73.4-53.9-110c-1.6-3.3-3.6-6.3-5.4-9.5C337.2,459.7,336.4,460,335.5,460.4z"/>
	<path class="st1" d="M605.8,480.8c-2.4,34.7-24.5,56.9-54.3,71.7c-38.3,19-80.1,26.3-121.5,34.8c-22.3,4.6-22.7,4.4-32.8-16
		c-18.1-36.6-35.9-73.4-53.9-110c-1.6-3.3-3.6-6.3-5.4-9.5c-0.8,0.4-1.6,0.7-2.5,1.1c-0.9,11.4-0.7,23-2.8,34.1
		c-5.1,26.2-20.3,45.3-43,59.2c-31.7,19.4-67.1,27.1-102.6,35.1c-13.6,3.1-27.5,5-41,8.7c-9.8,2.6-13.8-1.5-17.6-9.5
		c-15.8-33.5-31.9-66.9-48.1-100.2c-12-24.7-24.2-49.4-37-75.4c-1.1,0.1-2.2,0.3-3.5,0.5c14.1,28.6,27.4,55.5,40.5,82.5
		c16.2,33.3,32.3,66.7,48.1,100.2c3.8,8,7.8,12.2,17.6,9.5c13.5-3.6,27.4-5.6,41-8.7c35.4-8,70.9-15.7,102.6-35.1
		c22.7-13.9,37.9-33,43-59.2c2.2-11.1,1.9-22.7,2.8-34.1c0.8-0.4,1.6-0.7,2.5-1.1c1.8,3.2,3.8,6.2,5.4,9.5
		c18,36.7,35.7,73.5,53.9,110c10.1,20.4,10.4,20.6,32.8,16c41.4-8.5,83.2-15.9,121.5-34.8c29.8-14.7,51.9-37,54.3-71.7
		c0.4-6.3,0.5-12.7,0.4-19.1C606.2,473.1,606.1,477,605.8,480.8z"/>
	<path class="st0" d="M385.5,385.8c-12.9-26.6-25.4-51.1-36.8-76.1c-8.5-18.7-15.7-38.1-23-57.3c-2.2-5.8-5.2-8.4-11.6-7.7
		c-52.6,6.1-103.3,17.4-146.1,51.7c-28.3,22.7-46.9,51-53.1,89.3c-3.1-4.3-5.1-6.5-6.5-9.1c-27.1-51.1-52.1-103.2-64.8-159.8
		c-4.5-20.1-5.6-42-2.8-62.4c5-36.1,31.1-56.3,62.7-70.1c40.1-17.5,83.1-24.2,125.3-34c9.5-2.2,12.7,3.5,15.7,9.8
		c12.2,25.2,24.1,50.5,36.3,75.7c8.1,16.7,16.5,33.2,24.8,49.8c0.8,1.7,2.3,3,6.1,4.1c0-3.6,0.1-7.1,0-10.7
		c-2.3-49.3,23.8-76.3,64-94.4c36.7-16.5,76-23.4,115.1-31.1c21.7-4.2,21.2-3.6,31,16.9c25.2,52.3,50.9,104.3,76.3,156.5
		c2.4,4.9,4.1,10.2,6.4,16.1c-14.9,1.8-28.7,3.4-42.4,5.2c-38.6,5.1-75,16.7-107.6,38.4c-34.2,22.6-59,52.2-66.1,94
		C388.5,381.4,387.7,382.2,385.5,385.8z"/>
	<g class="st2">
		<path class="st3" d="M375.9,92.1c36.7-16.5,76-23.4,115.1-31.1c21.7-4.2,21.2-3.6,31,16.9c25.2,52.3,50.9,104.3,76.3,156.5
			c1.4,2.8,2.5,5.8,3.7,8.8c0.9-0.1,1.8-0.2,2.7-0.3c-2.3-5.9-4-11.2-6.4-16.1c-25.4-52.2-51.2-104.2-76.3-156.5
			c-9.9-20.5-9.3-21.1-31-16.9c-39.1,7.6-78.4,14.6-115.1,31.1c-39.5,17.8-65.3,44.2-64.1,91.9C313.4,133.5,338.6,108.9,375.9,92.1z
			"/>
		<path class="st3" d="M41,162c5-36.1,31.1-56.3,62.7-70.1c40.1-17.5,83.1-24.2,125.3-34c9.5-2.2,12.7,3.5,15.7,9.8
			c12.2,25.2,24.1,50.5,36.3,75.7c8.1,16.7,16.5,33.2,24.8,49.8c0.8,1.7,2.3,3,6.1,4.1c0-2.8,0.1-5.6,0-8.5c0,0.3,0,0.6,0,0.9
			c-3.7-1.1-5.2-2.4-6.1-4.1c-8.4-16.5-16.8-33.1-24.8-49.8c-12.2-25.2-24.1-50.5-36.3-75.7c-3.1-6.3-6.2-12-15.7-9.8
			c-42.2,9.8-85.2,16.5-125.3,34C72.1,98.1,46,118.3,41,154.4c-1,7.5-1.4,15.2-1.4,22.9C39.9,172.1,40.3,167,41,162z"/>
	</g>
</g>
</svg>
