<?xml version="1.0" encoding="utf-8"?>
<!-- Generator: Adobe Illustrator 19.2.1, SVG Export Plug-In . SVG Version: 6.00 Build 0)  -->
<svg version="1.1" id="图层_1" xmlns="http://www.w3.org/2000/svg" xmlns:xlink="http://www.w3.org/1999/xlink" x="0px" y="0px"
	 viewBox="0 0 2560 480" style="enable-background:new 0 0 2560 480;" xml:space="preserve">
<style type="text/css">
	.st0{fill:#008F3F;}
	.st1{opacity:0.2;fill:#263238;}
	.st2{opacity:0.2;}
	.st3{fill:#FFFFFF;}
	.st4{fill:#363636;}
	.st5{fill:#5B5B5B;}
</style>
<g>
	<path class="st0" d="M253.5,337.3c-0.6,8.5-0.5,17.2-2.1,25.6c-3.8,19.6-15.2,34-32.3,44.4c-23.7,14.5-50.4,20.3-76.9,26.3
		c-10.2,2.3-20.6,3.8-30.7,6.5c-7.3,2-10.4-1.1-13.2-7.1c-11.8-25.1-23.9-50.1-36.1-75.1c-9.8-20.2-19.8-40.4-30.4-61.9
		c4.2-0.5,7.1-1,10-1.2c38.2-1.9,74-11.6,106-32.9c24.4-16.2,40.2-38.7,47.3-67.2c0.3-1.2,0.7-2.3,1.7-5.5
		c8.7,17.3,17.2,32.6,24.3,48.5c7.6,17,13.7,34.5,20.9,51.7c1,2.3,4.4,5.4,6.5,5.2c39.9-2.7,77.7-12.4,110.1-37.1
		c21.9-16.8,37-38.3,41-66.5c0.8-0.6,1.6-1.1,2.4-1.7c0.7,1.6,1.2,3.3,2,4.9c19.8,38.3,39.2,76.8,48.9,119
		c3.4,14.6,4.3,30.2,3.2,45.2c-1.8,26-18.4,42.7-40.7,53.8c-28.7,14.2-60.1,19.7-91.1,26.1c-16.7,3.4-17,3.3-24.6-12
		c-13.6-27.4-26.9-55-40.4-82.5c-1.2-2.4-2.7-4.7-4.1-7.1C254.7,336.8,254.1,337,253.5,337.3z"/>
	<path class="st1" d="M456.2,352.6c-1.8,26-18.4,42.7-40.7,53.8c-28.7,14.2-60.1,19.7-91.1,26.1c-16.7,3.4-17,3.3-24.6-12
		c-13.6-27.4-26.9-55-40.4-82.5c-1.2-2.4-2.7-4.7-4.1-7.1c-0.6,0.3-1.2,0.5-1.9,0.8c-0.6,8.5-0.5,17.2-2.1,25.6
		c-3.8,19.6-15.2,34-32.3,44.4c-23.7,14.5-50.4,20.3-76.9,26.3c-10.2,2.3-20.6,3.8-30.7,6.5c-7.3,2-10.4-1.1-13.2-7.1
		c-11.8-25.1-23.9-50.1-36.1-75.1c-9-18.5-18.1-37-27.7-56.5c-0.8,0.1-1.7,0.2-2.6,0.3c10.5,21.5,20.5,41.6,30.3,61.9
		c12.1,25,24.2,50,36.1,75.1c2.8,6,5.9,9.1,13.2,7.1c10.1-2.7,20.5-4.2,30.7-6.5c26.6-6,53.2-11.8,76.9-26.3
		c17-10.4,28.5-24.7,32.3-44.4c1.6-8.4,1.5-17,2.1-25.6c0.6-0.3,1.2-0.5,1.9-0.8c1.4,2.4,2.9,4.7,4.1,7.1
		c13.5,27.5,26.8,55.1,40.4,82.5c7.6,15.3,7.8,15.4,24.6,12c31-6.4,62.4-11.9,91.1-26.1c22.4-11.1,38.9-27.7,40.7-53.8
		c0.3-4.7,0.4-9.5,0.3-14.3C456.5,346.8,456.4,349.7,456.2,352.6z"/>
	<path class="st0" d="M291,281.3c-9.7-20-19.1-38.3-27.6-57.1c-6.4-14-11.8-28.5-17.2-43c-1.7-4.4-3.9-6.3-8.7-5.8
		c-39.5,4.6-77.5,13-109.5,38.8c-21.2,17-35.2,38.3-39.9,67c-2.3-3.2-3.8-4.9-4.9-6.8c-20.3-38.3-39-77.4-48.6-119.9
		c-3.4-15.1-4.2-31.5-2.1-46.8c3.7-27.1,23.3-42.3,47-52.6c30.1-13.1,62.3-18.1,94-25.5c7.1-1.7,9.5,2.6,11.8,7.4
		c9.2,18.9,18.1,37.9,27.2,56.7c6.1,12.5,12.4,24.9,18.6,37.3c0.6,1.3,1.8,2.3,4.6,3.1c0-2.7,0.1-5.3,0-8c-1.7-37,17.9-57.3,48-70.8
		c27.5-12.4,57-17.6,86.3-23.3c16.3-3.2,15.9-2.7,23.3,12.6c18.9,39.2,38.2,78.2,57.3,117.3c1.8,3.7,3,7.6,4.8,12.1
		c-11.2,1.4-21.5,2.6-31.8,3.9c-29,3.8-56.2,12.6-80.7,28.8c-25.6,17-44.3,39.1-49.6,70.5C293.2,278,292.6,278.6,291,281.3z"/>
	<g class="st2">
		<path class="st3" d="M283.8,61.1c27.5-12.4,57-17.6,86.3-23.3c16.3-3.2,15.9-2.7,23.3,12.6c18.9,39.2,38.2,78.2,57.3,117.3
			c1,2.1,1.9,4.3,2.7,6.6c0.7-0.1,1.3-0.2,2-0.2c-1.7-4.4-3-8.4-4.8-12.1c-19.1-39.1-38.4-78.1-57.3-117.3
			c-7.4-15.4-7-15.8-23.3-12.6c-29.3,5.7-58.8,10.9-86.3,23.3c-29.6,13.3-49,33.2-48,68.9C236.9,92.1,255.8,73.7,283.8,61.1z"/>
		<path class="st3" d="M32.6,113.5c3.7-27.1,23.3-42.3,47-52.6c30.1-13.1,62.3-18.1,94-25.5c7.1-1.7,9.5,2.6,11.8,7.4
			c9.2,18.9,18.1,37.9,27.2,56.7c6.1,12.5,12.4,24.9,18.6,37.3c0.6,1.3,1.8,2.3,4.6,3.1c0-2.1,0-4.2,0-6.3c0,0.2,0,0.5,0,0.7
			c-2.8-0.8-3.9-1.8-4.6-3.1c-6.3-12.4-12.6-24.8-18.6-37.3c-9.1-18.9-18-37.9-27.2-56.7c-2.3-4.7-4.7-9-11.8-7.4
			c-31.6,7.4-63.9,12.4-94,25.5c-23.7,10.3-43.3,25.5-47,52.6c-0.8,5.6-1,11.4-1,17.2C31.7,121.1,32.1,117.3,32.6,113.5z"/>
	</g>
</g>
<g>
	<path class="st4" d="M1657.7,170.8c4.8-15.6,1.2-23.3-14.9-22.7c-12.8,0.5-16.2-7.2-16.2-19c0-13,1.5-25.2,17.3-25.6
		c38.1-0.8,76.2-0.9,114.2,0c14.4,0.3,17.3,12.6,17.8,24.5c0.5,10.8-2.8,19.4-15.5,20.7c-3.5,0.4-7,0.9-11.3,1.4
		c-3.3,12.3-5.2,22,12.6,23.8c4.5,0.5,11.5,9.5,11.6,14.6c1,58.1,1,116.3,0.8,174.4c0,14.2-11.5,18.2-22.3,18.5
		c-32.4,0.9-64.8,0.5-97.2,0c-15.2-0.2-22.6-10.2-22.7-24.1c-0.5-55-0.5-110.1,0.1-165.2C1632,176.8,1644.6,172.8,1657.7,170.8z
		 M1677.9,334.3c14,0,27.4,0.6,40.6-0.4c3.4-0.3,6.4-5.5,9.7-8.4c-3.3-3.1-6.2-8.4-9.8-9c-8.5-1.4-17.4-0.2-26.2-0.7
		C1680.1,315.2,1674.3,319.5,1677.9,334.3z M1680.4,245.3c0.1,0,0.2,0,0.2,0c0-9.2,0.3-18.4-0.2-27.5c-0.1-2.2-3-5.8-5-6
		c-2.1-0.3-6.6,2.6-6.6,4.1c-0.3,19.3-0.1,38.7,0.6,58c0.1,1.9,4,3.7,6.1,5.5c1.6-2.2,4.6-4.3,4.7-6.6
		C1680.7,263.7,1680.4,254.5,1680.4,245.3z M1710.3,245.1c0.2,0,0.3,0,0.5,0c0-8.7,0.5-17.5-0.3-26.1c-0.2-2.5-3.8-4.8-5.9-7.2
		c-2,1.9-5.7,3.8-5.7,5.7c-0.4,18.4-0.3,36.9,0.2,55.3c0.1,2.1,3.6,4,5.5,6c1.9-2,5.3-4,5.4-6.1
		C1710.6,263.6,1710.3,254.3,1710.3,245.1z M1727.1,278.1c1.8,0.6,3.5,1.2,5.3,1.8c2-2.4,5.7-4.8,5.7-7.3
		c0.5-18.4,0.4-36.7-0.1-55.1c-0.1-2-3.5-4-5.4-6c-1.8,2.1-5.2,4.1-5.3,6.2C1727,237.9,1727.1,258,1727.1,278.1z"/>
	<path class="st4" d="M677.2,176c8.1,2.3,12.9,4.6,17.7,4.9c11.3,0.7,22.8-0.4,33.9,1.2c3.7,0.5,8.1,6.4,9.1,10.6
		c0.5,2.1-5.7,8.1-9.3,8.4c-11.2,1.2-22.6,0.1-33.9,0.8c-4.8,0.3-9.6,2.7-14.3,4.2c0.1,1.5,0.2,3,0.3,4.5c3.5,1,7.1,3,10.6,2.8
		c22-1.3,44.9,5.7,65.3-10.3c9-7.1,28.2-0.1,30.7,9.5c3.4,13.3-5.2,20-16.8,23.2c-18.1,5-35.5,6-53.4-3.5
		c-19.8-10.5-41-8.8-60.8,1.9c-18.7,10.1-29.3,5.9-30.9-14.4c-1.1-14-10.9-9.6-18.1-9.9c-9.7-0.5-19,0.2-19.1-13.8
		c-0.1-11.9,6.1-14.2,16.5-14.9c6.9-0.4,13.7-4.5,20.5-7c-7-1.5-13.9-3.8-21-4.3c-11.8-0.9-23.6,0.6-27.4,14.3
		c-3.5,13-2.6,25.1,9.6,34.6c12.7,10,9.6,20.5-4.6,28.4C575,251,568,260.1,567,267.6c-1.8,12.9-6.3,28.2,8,38.3
		c12.1,8.5,15,24.2,4,34.4c-10.2,9.4-14.3,19.9-12.7,32.9c1.3,10.6-3.7,13.2-13.2,13.5c-29.7,1.1-42.5-10-34.4-38.6
		c16.9-60.1,15.9-121.1,16.3-182.3c0.1-22,6-26.9,28.2-27.3c13.9-0.2,27.8-0.6,41.7,0.1c10.8,0.5,15.2-4,15.2-14.2
		c0-1.5-0.1-3.1,0.2-4.6c2.1-10.2-5.3-24.5,10.4-29c18.1-5.2,36.3-6.6,53.7,3.7c6,3.6,13.1,7.1,19.8,7.4c20.6,0.9,41.2,0.4,61.8,0.2
		c11.5-0.1,19,4.6,19.1,16.7c0.1,12.9-9.1,14.2-19.2,14.2c-22.2-0.1-44.3-0.2-66.5,0.3c-3.8,0.1-7.5,3.2-11.2,4.9
		c3.8,2.3,7.6,6.6,11.4,6.7c23.2,0.7,46.4,0.8,69.5,0.1c7.5-0.2,15.4-2.5,22.1-5.7c10.7-5.1,16.7-0.7,17.8,9
		c1.5,13.2,1.6,26.8,0.3,40.1c-1,11-9,13.3-18.9,7.8c-6.2-3.4-13.4-5.1-19.6-8.6c-5.5-3.1-10.2-7.6-15.5-11.2
		c-3.7-2.5-7.7-6.1-11.7-6.3c-19-0.7-38.1-0.5-57.1-0.3C684.6,170,682.7,172.4,677.2,176z"/>
	<path class="st4" d="M940.3,361.9c-4.9,3-8.3,4.9-11.6,7.2c-15.2,10.6-25.3,9.4-37.2-5.1c-10.1-12.2-3.8-21.6,5.5-30.7
		c10.4-10.2,20.3-20.8,33.5-34.5c-10.4-0.7-15.8-1.5-21.2-1.3c-11.6,0.3-20.3-2.2-20.8-16.4c-0.7-17.7,4.4-26.9,18.4-28.9
		c8.1-1.2,16.5,0.2,24.6-0.9c3.7-0.5,9.6-3.6,10-6.2c2.9-18,15.4-22.1,30.4-21.8c15.3,0.3,24.9,8.5,27.2,24.2
		c0.1,0.9,0.9,1.8,1.7,3.3c23.7,0,47.8,0,71.5,0c7.4-23.1,24.3-32.9,42.5-24.4c4.8,2.2,11.2,6.6,12,10.9c2.3,13.2,9.9,15.1,21,13.9
		c4.6-0.5,9.3,0.4,13.9,0.5c19.2,0.7,23.1,5,22.8,24.1c-0.2,13.6-5.2,21.5-20.3,20.6c-5.7-0.4-11.6,1.1-22.1,2.2
		c13.8,12.9,24.5,22.3,34.6,32.3c12.5,12.4,11.5,26.4-1.8,37c-8.4,6.6-16.3,7.7-24.9,0.2c-5.3-4.5-11.4-8.1-16.7-11.7
		c-3.9,11.4-5.9,22.6-11.6,31.4c-2.5,3.9-12.3,4.1-18.8,4.1c-20.8,0-24.5-4.4-30.6-34c-13.4,11.7-26.8,26.6-45.5,13.1
		c-6.5-4.7-9.1-14.8-15.1-25.3c8.1,0,10.6-0.4,12.9,0.1c21.7,4.6,31.5,0.1,38.6-17.6c7.3-18.4,2.5-32.3-15.4-43.2
		c-4.8-2.9-10.2-4.8-15.4-7.2c-17.4-8.1-30.8-6-39.8,6.3c-11.1,15.2-6.6,28.6,0.1,45.2c6.3,15.6,6.5,36.1,2.2,52.6
		c-3.6,13.4-21.4,11.1-34.3,9.6C944,389.6,941.1,377.1,940.3,361.9z"/>
	<path class="st4" d="M1008.6,197.2c-9.6,22.7-26.9,16.1-42.1,15.4c-12.3-0.6-21.9,2.8-29.2,13.2c-5.7,8.1-15.1,14.6-23.6,8.2
		c-7.3-5.4-13.7-15.7-14.8-24.6c-0.7-5.3,8.4-14.2,15.1-17.7c16.1-8.4,33.3-14.6,50-21.6c-0.4-1.9-0.7-3.8-1.1-5.7
		c-11,0-21.9,0.2-32.9,0c-21.4-0.4-24.9-4-25.1-25.5c-0.2-18.7,6.6-26,25.9-26.6c19-0.6,38.1-0.3,57.2-0.3c6.1,0,12.3,0,17.9,0
		c10.1-21.2,24-27.9,46-21.2c5.1,1.5,11.3,6.7,12.7,11.4c2.8,9.3,8.2,10.2,16.1,10.1c21.6-0.3,43.3-0.4,64.9-0.2
		c16.9,0.2,24.9,8.9,25,26.4c0.1,19.7-5.1,25-24.2,25.1c-9.3,0-18.7,0-28,0c-0.4,2-0.8,4-1.2,6c15.1,8.1,30.4,15.9,45.4,24.3
		c10.4,5.7,16.9,13.5,12.1,26.5c-4.6,12.4-13.3,18.2-26.3,16.1c-4.2-0.7-9.4-3.1-11.6-6.4c-10.2-15.5-24.7-17.8-41.6-17.2
		c-8.7,0.3-17.5-3.1-28-5.2c1.5,18.1-5.3,32.7-32.5,31.7C1005.2,238.2,1012,216.3,1008.6,197.2z"/>
	<path class="st4" d="M1788,290.8c0-20.6-0.3-41.2,0.1-61.8c0.3-17.5,6.6-23.9,24.4-24.9c11.3-0.6,22.7-0.9,33.9-0.2
		c14.3,1,20.5-3.7,20.1-19.1c-0.7-23.5-1.6-25.3-25.4-25.4c-11.3,0-22.7-0.3-34,0.2c-13.1,0.6-19-5.8-19.1-18.4
		c0-5.7,0.3-11.3,0.2-17c-0.1-10.9,5.7-16.2,16.2-16.3c31.4-0.1,62.8-0.2,94.2,0c14.2,0.1,20.7,9.3,20.9,21.9c0.7,35,0.7,70,0.1,105
		c-0.2,11-6.9,18.2-18.7,18.5c-14.4,0.4-28.8,0.8-43.2,0.1c-11.7-0.6-17.3,3.5-16.9,15.7c0.4,13.9-0.9,27.9,0.4,41.6
		c0.5,5.3,5.6,14.2,9.1,14.4c7.8,0.5,16-2.9,23.7-5.8c2.1-0.8,3-5.2,4.4-7.9c8.3-16.9,15.7-19.9,34.8-14.1c17,5.2,23,13.8,19.3,31
		c-2.3,11-5.9,22-10.9,32c-6.3,12.6-17.4,20.7-31.8,21.1c-23.7,0.6-47.4,0.8-71,0c-24.3-0.8-30.9-8.2-31-32.2
		c-0.1-19.6,0-39.1,0-58.7C1787.9,290.8,1788,290.8,1788,290.8z"/>
	<path class="st4" d="M746,342.6c13.6,3.2,25.6,6.9,38,8.8c13.2,2,23.3,6.4,22.1,21.7c-1.1,14.7-11.9,22.4-29.1,19.3
		c-21.5-4-42.5-11-64.1-14.4c-14.3-2.3-29.4-2.2-43.8-0.2c-21.3,3-42.1,9.1-63.3,13.2c-13.6,2.7-24.2-4.7-26.5-17.1
		c-2.4-13.2,3.8-22.6,17.8-25.8c11.7-2.7,23.5-4.5,38.8-7.4c-11.2-15.3-19.2-27.6-28.8-38.7c-3.1-3.6-9.9-5-15.2-5.3
		c-12-0.7-16-6.8-15.6-18c0.4-11.2,4-19.3,16.7-19.5c17-0.3,34,0.6,50.9-0.8c5.6-0.4,12.5-4.8,16-9.5c9.6-13,47.5-13,57-0.1
		c3.5,4.8,10.5,9.2,16.3,9.6c17.9,1.3,36,0.5,54,0.6c12.6,0.1,20.7,5,20.7,19.1c0,13.4-6.1,19.1-19.8,19.9
		c-6,0.4-12.8,5.5-17.1,10.4C762.7,317.9,755.9,328.9,746,342.6z M714.3,302.9c-0.6-1.4-1.3-2.9-1.9-4.3c-13,0-26,0-39,0
		c-0.8,1.2-1.6,2.4-2.4,3.7c6.4,6.6,13.8,19.2,19,18.4C698.8,319.2,706.2,309.3,714.3,302.9z"/>
	<path class="st4" d="M1503.5,313.5c12.5-3.1,20.6-6.9,28.5-6.6c17.4,0.8,26.8,13.1,24.3,30.4c-1,7-3,14.2-5.8,20.7
		c-6.5,15.1-14.3,28.9-34.1,28.4c-17.2-0.5-31.6-10.1-36.8-29.8c-6.2-23.2-10.4-47.1-13.1-70.9c-1.6-14.7-5.9-20.6-21.5-19.8
		c-24.1,1.3-48.4,1.1-72.6-0.1c-6.9-0.4-18.3-5.7-19.2-10.3c-2.1-10.9,0.5-22.8,2.5-34.1c0.3-1.6,8.2-3.1,12.4-2.6
		c14.1,1.6,28.1,5.9,42.1,5.9c31.3,0.1,62.7-1.5,94-2.9c10.1-0.4,14.3,4.8,15.3,13.4c1.7,16.4,3.9,32.8,3.6,49.2
		c-0.1,5.4-7.4,10.5-11.2,15.9C1509.2,304,1507,308,1503.5,313.5z"/>
	<path class="st4" d="M1545.5,143.9c-4.8,7.8-7.9,17.9-14.8,23c-7.8,5.7-17.8,4.7-26.1-4c-3.2-3.5-10.4-4.4-15.7-4.5
		c-29.8-0.4-59.6-0.9-89.4-0.1c-26.1,0.7-30.5,5.7-35.2,31c-0.7,4-5.9,10.7-7.4,10.3c-7.5-2.1-14.7-5.7-21.3-9.9
		c-1-0.6,0.8-8.4,3.2-11.1c12.7-14.3,17.6-30,15.9-49.5c-2.3-27.7,23.5-44.3,48.3-32.6c1.8,0.9,4.6,1.9,5,3.3
		c3.9,16.8,17.2,12.2,28.1,12.3c25.2,0.2,50.4,0.1,75.6,0.1C1535.3,112.2,1542.3,119,1545.5,143.9z"/>
	<path class="st4" d="M1308.7,272c27.6,0.5,42.2,21.2,33,41.5c-9.7,21.5-20.3,42.7-32.5,62.8c-10.3,16.9-41,15.6-50.9-1.7
		c-2.8-4.8-2.6-13.5-0.1-18.8c11.3-24.2,23.2-48.1,36.2-71.4C1297.9,278.1,1305.8,274.4,1308.7,272z"/>
	<path class="st4" d="M1439.7,212.9c-14.9,0-29.9-0.2-44.8,0.1c-10.9,0.2-18.1-3.3-18.1-15.6c0-11.8,0.5-24,15.7-25.6
		c13.8-1.4,27.7-1.2,41.6-1.3c16.5-0.2,33-0.4,49.4,0.2c14.7,0.5,20,7.7,19.4,23.7c-0.5,13-5.5,19.8-19.9,18.8
		C1468.5,212.1,1454.1,212.9,1439.7,212.9z"/>
	<path class="st4" d="M1342.7,140c-0.2,28-21,40.4-42.6,28.2c-11.1-6.3-22.2-12.9-33.1-19.6c-10.3-6.3-13.7-16-8.8-26.6
		c5.1-11.1,12.8-25.8,26.4-21.4c19,6.1,36.4,17.7,53.8,28.1C1341.7,130.8,1341.9,137.9,1342.7,140z"/>
	<path class="st4" d="M1337,219.9c-1.2,26.7-17.2,36.8-37.2,26.5c-12.6-6.5-25-14-35.9-23c-10.9-9.1-11.1-21.2-2.6-33
		c8.7-12,19.8-14.5,32.2-7.3c12.4,7.2,24.5,15.1,35.7,24C1333.8,210.7,1335.7,217.6,1337,219.9z"/>
	<path class="st4" d="M1053.7,310c0.6,20.3-11.5,29-27.2,22.3c-7-3-13.5-7.4-20.1-11.4c-10.4-6.5-16.1-14-7-26.2
		c8.2-11,16.9-14,28.6-5.3c5.4,4,11.9,6.3,17.1,10.5C1049.2,303.1,1052,308,1053.7,310z"/>
</g>
<g>
	<path class="st5" d="M2055.8,275.3v10.2h9v9.4h-67.3v-9.4h9v-10.2h10.5v10.2h28.3v-10.2H2055.8z M1997.5,356.6h28.5v-9.4h-9.3
		c-9.1,0-16.7-6.6-16.7-14.6v-17.9c0-8.1,7.6-14.9,16.7-14.9h28.9c9,0,16.6,6.7,16.6,14.9v17.9c0,8-7.6,14.6-16.6,14.6h-9.1v9.4
		h28.3v9.4h-28.3v13.3h-10.5v-13.3h-28.5V356.6z M1999.5,262.1h26.5v-8.5h10.5v8.5h26.3v9.4h-63.3V262.1z M2010.5,319.1h41.2v-4.4
		c0-3-2.6-5.5-6-5.5h-28.9c-3.4,0-6.2,2.5-6.2,5.5V319.1z M2045.6,337.8c3.4,0,6-2.3,6-5.2v-4.1h-41.2v4.1c0,2.9,2.8,5.2,6.2,5.2
		H2045.6z M2108.9,343.2c-0.9,4.4-2.2,8.3-3.9,11.7l33.4,15.4l-4.8,8.4l-34-15.7c-7.6,8.3-18.6,12.5-30.8,15.8l-3.3-8.8
		c16.1-4.3,29.6-10.5,32.8-28.3L2108.9,343.2z M2075.9,272.4l24.9,8.5c5.7-2.7,10.8-5.9,15.2-9.6h-47l7-17.6l9.9,3l-2,5.1h52.6
		c-6.8,9.8-15.2,17.2-24.5,23l26,8.9l-3.7,8.9l-6.7-2.2v8.5h-19.8v6.9h25.7v9.4h-62.2v-9.4h26V309h-20v-9.4h48.1l-24.9-8.7
		c-10.1,4.7-20.7,8-31.9,10.7l-2.9-9.1c7.6-1.8,14.9-3.8,21.5-6.2l-14.9-5.2L2075.9,272.4z M2123.3,359.9v-17.5c0-1.6-1.4-3-3.3-3
		h-35.1c-1.9,0-3.3,1.4-3.3,3v17.5h-10.5v-17.5c0-6.7,6.3-12.4,13.8-12.4h35.1c7.6,0,13.8,5.6,13.8,12.4v17.5H2123.3z"/>
	<path class="st5" d="M2316.4,350.8v10.7c0,9.5-8.8,17.3-19.5,17.3h-105.2l10.1-34.7h-17v-9.4h15.2v-59.6c0-9.5,8.8-17.3,19.5-17.3
		h71.2c10.7,0,19.5,7.8,19.5,17.3v59.6h15v9.4h-112.5l-7.4,25.3h91.8c5.1,0,9-3.6,9-8v-10.7H2316.4z M2210.4,283.7h89.1v-8.4
		c0-4.4-4-8-9-8h-71.2c-5,0-9,3.6-9,8V283.7z M2210.4,310.2h89.1V293h-89.1V310.2z M2210.4,334.8h89.1v-15.3h-89.1V334.8z"/>
	<path class="st5" d="M2507.7,274.6h-106.6c-4.9,0-8.8,3.7-9,8.3l-7.1,96l-10.5-0.4l7-96.2c0.8-9.2,9-17.1,19.7-17.1h41.9V253h10.5
		v12.2h54.2V274.6z M2422.4,378.8c-10.7,0-19.7-7.8-19.7-17.3V339c0-9.5,9-17.3,19.7-17.3h15.5v-41.5h10.5V293h57.7v9.5h-57.7v19.1
		h38.8c10.7,0,19.5,7.8,19.5,17.3v22.6c0,9.5-8.8,17.3-19.5,17.3H2422.4z M2487.3,369.5c5,0,9-3.6,9-8V339c0-4.4-4-8-9-8h-64.8
		c-5.1,0-9,3.6-9,8v22.6c0,4.4,3.9,8,9,8H2487.3z"/>
</g>
</svg>
